<?xml version="1.0" standalone="no"?><!DOCTYPE svg PUBLIC "-//W3C//DTD SVG 1.1//EN" "http://www.w3.org/Graphics/SVG/1.1/DTD/svg11.dtd"><svg t="1742967354227" class="icon" viewBox="0 0 1024 1024" version="1.1" xmlns="http://www.w3.org/2000/svg" p-id="3688" xmlns:xlink="http://www.w3.org/1999/xlink" width="128" height="128"><path d="M101 615h16.5v64.2H101z" fill="#F0F3FA" p-id="3689"></path><path d="M63.2 543.1s-3.3-37.5 27.9-46.5c31.3-9 45.8 23.3 45.8 23.3s49.1 5.3 43.2 62.5c-6 57.2-67.8 42.5-67.8 42.5s-43 19.9-65.1-25.2c-16-32.7 16-56.6 16-56.6zM797 616.9h11.2v43.6H797v-43.6z m0 0" fill="#F0F3FA" p-id="3690"></path><path d="M771.3 568.1s-2.2-25.4 19-31.6c21.2-6.1 31.2 15.8 31.2 15.8s33.4 3.6 29.4 42.4-46 28.8-46 28.8-29.2 13.5-44.2-17.2c-11.1-21.9 10.6-38.2 10.6-38.2z m113.5 48.5h21v82h-21v-82z m0 0" fill="#F0F3FA" p-id="3691"></path><path d="M836.5 524.8s-4.2-47.9 35.7-59.4c39.9-11.5 58.6 29.8 58.6 29.8S993.6 502 986 575c-7.7 73-86.6 54.3-86.6 54.3s-55 25.3-83.2-32.3c-20.6-41.7 20.3-72.2 20.3-72.2z m-619.2 87.1h7v27.4h-7v-27.4z m0 0" fill="#F0F3FA" p-id="3692"></path><path d="M201.2 581.3s-1.4-16 12-19.9c13.4-3.9 19.6 9.9 19.6 9.9s21 2.3 18.5 26.6c-2.5 24.4-28.9 18.2-28.9 18.2s-18.4 8.4-27.8-10.8c-7-13.9 6.6-24 6.6-24z m116.2 21.3h3.8v14.9h-3.8v-14.9z m0 0" fill="#F0F3FA" p-id="3693"></path><path d="M308.7 586s-0.8-8.6 6.4-10.8c7.2-2.1 10.7 5.4 10.7 5.4s11.4 1.2 10 14.5c-1.4 13.3-15.7 9.8-15.7 9.8s-10 4.6-15.1-5.8c-3.6-7.6 3.7-13.1 3.7-13.1z m0 0" fill="#F0F3FA" p-id="3694"></path><path d="M1024.2 788.4c0 108.1-234.5 167-600.3 167C141.1 955.3-5.5 880.3 0.2 783.9 7.2 665.4 213.7 608 496.5 608c282.9 0 527.7 120.4 527.7 180.4z m0 0" fill="#F8F9FC" p-id="3695"></path><path d="M623.2 859.6s-10.6 16-23.5 19c0 0 44.5 0.3 74.2 4 0 0 14-21.5 20.5-23-0.1 0-47.2 3.1-71.2 0z m198.6-74.3s12.1 3.5 21.5 4c0 0 2.1 24.7-17.5 40 0 0-10.1-10.1-21.5-14.5-0.1 0 21-7.3 17.5-29.5z m-21.5-76.2s10.6 13.7 25.5 3.4c0 0-1.7 23.1 6.2 26.6 4.8 3 14.8 10.1 14.8 10.1s-23.5 10.6-42.5-9c-7.5-9.1-4-26.1-4-31.1z m0 0" fill="#C7CFE1" p-id="3696"></path><path d="M303 773.9c0 9.2 70.2 16.7 156.7 16.7 86.5 0 156.7-7.5 156.7-16.7s-70.2-16.7-156.7-16.7c-86.6 0-156.7 7.5-156.7 16.7z m0 0" fill="#E3EDF9" p-id="3697"></path><path d="M187.7 716c0 12.7 116.3 23.2 260.4 23.2 144 0 260.4-10.4 260.4-23.2 0-12.7-116.3-23.1-260.4-23.1-144.1 0-260.4 9.8-260.4 23.1m176.5-561.2h356.5c7 0 12.7 4.6 12.7 10.4v464.6c0 5.8-5.8 10.4-12.7 10.4H364.2c-7 0-12.7-4.6-12.7-10.4V165.2c-0.1-5.2 5.7-10.4 12.7-10.4z m0 0" fill="#FAFAFC" p-id="3698"></path><path d="M639.6 235.8h-349c-10.4 1.2-17.9 9.3-16.8 17.9v438.6c-0.6 9.3 7 17.3 16.8 17.9h320.6c24.9-1.2 44.5-22 44.5-46.8V253.7c0.1-9.9-7.4-17.9-16.1-17.9zM447.5 588.7H331.7c-6.4 0-11.6-5.2-11.6-11.6s5.2-11.6 11.6-11.6h115.7c6.4 0 11.6 5.2 11.6 11.6s-5.2 11.6-11.5 11.6z m92.6-81H331.7c-6.4 0-11.6-5.2-11.6-11.6s5.2-11.6 11.6-11.6H540c6.4 0 11.6 5.2 11.6 11.6 0.1 6.4-5.2 11.6-11.5 11.6z m59.6-90.2H330c-4.1 0-7-2.3-8.7-6.4-1.8-4.1-1.8-8.1 0-12.2s5.2-6.4 8.7-6.4h269.6c5.2 0 9.3 5.8 9.8 12.7 0.1 6.4-3.9 12.3-9.7 12.3z m0-88H330c-5.8 0-9.8-5.8-9.8-12.2 0-6.4 4.1-12.1 9.8-12.1h269.6c5.2 0 9.3 5.8 9.8 12.1 0.1 6.4-3.9 12.2-9.7 12.2z m0 0" fill="#EAEEF4" p-id="3699"></path><path d="M567.2 623.4H233.4v36.5c0 28.4 19.7 50.4 46.3 50.4h332.7c-24.9 0-45.1-22.5-45.1-50.4v-36.5z m0 0" fill="#E2E6ED" p-id="3700"></path><path d="M478.3 592.7c0 32.5 17.3 62.5 45.5 78.8 28.1 16.2 62.8 16.2 91 0 28.1-16.2 45.5-46.3 45.5-78.8s-17.3-62.5-45.5-78.8c-28.1-16.2-62.8-16.2-91 0-28.2 16.2-45.5 46.3-45.5 78.8z m0 0" fill="#FFFFFF" opacity=".1" p-id="3701"></path><path d="M710.7 729l-50.1-50.1c-3.6-3.6-9.7-3.6-13.6 0l-4.7 4.7c-3.6 3.6-3.6 9.7 0 13.6l50.1 50.1c3.6 3.6 9.7 3.6 13.6 0l4.7-4.7c4-3.6 4-9.6 0-13.6M559 539.2c-29.3 0-53 23.6-53 53 0 5.7 4.7 10.7 10.7 10.7 5.7 0 10.7-4.7 10.7-10.7 0-17.6 14.3-31.9 31.8-31.9 5.7 0 10.7-4.7 10.7-10.7 0.2-6.1-4.8-10.4-10.9-10.4m6.4 138.6c-43.7 0-79.1-35.5-79.1-79.2s35.4-79.2 79.1-79.2c43.7 0 79.1 35.5 79.1 79.2s-35.4 79.2-79.1 79.2m0-180.9c-56.2 0-101.6 45.5-101.6 101.7s45.5 101.7 101.6 101.7c56.2 0 101.6-45.5 101.6-101.7 0.1-56.2-45.4-101.7-101.6-101.7" fill="#C6CFD6" p-id="3702"></path></svg>